<?xml version="1.0" standalone="no"?>
<!DOCTYPE svg PUBLIC "-//W3C//DTD SVG 20010904//EN"
 "http://www.w3.org/TR/2001/REC-SVG-20010904/DTD/svg10.dtd">
<svg version="1.0" xmlns="http://www.w3.org/2000/svg"
 width="278.000000pt" height="128.000000pt" viewBox="0 0 278.000000 128.000000"
 preserveAspectRatio="xMidYMid meet">

<g transform="translate(0.000000,128.000000) scale(0.100000,-0.100000)"
fill="#000000" stroke="none">
<path d="M1190 1168 c-5 -13 -32 -97 -60 -188 -28 -91 -53 -171 -55 -177 -6
-17 -85 -17 -85 -1 0 6 18 71 40 144 22 73 40 135 40 139 0 3 -33 5 -72 3
l-73 -3 -56 -190 c-31 -104 -86 -290 -123 -412 -36 -122 -66 -225 -66 -228 0
-3 31 -5 69 -5 l70 0 45 143 c24 78 53 171 64 207 l20 65 41 3 c29 2 41 -1 41
-10 0 -7 -18 -74 -40 -148 -22 -74 -40 -138 -40 -142 0 -5 31 -8 69 -8 l69 0
11 33 c18 57 168 558 204 680 l35 117 -69 0 c-63 0 -70 -2 -79 -22z"/>
<path d="M1360 1086 c0 -3 -27 -94 -59 -203 -93 -311 -151 -511 -151 -517 0
-3 62 -6 138 -6 l138 0 21 65 21 65 -69 0 -69 0 6 28 c4 15 16 54 28 87 l21
60 64 5 64 5 18 45 c28 69 27 70 -46 70 l-65 0 6 26 c4 15 14 52 23 83 l17 56
69 5 68 5 18 50 c28 79 35 75 -121 75 -77 0 -140 -2 -140 -4z"/>
<path d="M1662 948 c-23 -79 -75 -259 -117 -402 -41 -142 -77 -267 -81 -278
-5 -18 -1 -19 67 -16 l73 3 60 208 60 207 33 0 c19 0 36 -6 39 -13 3 -8 -14
-76 -37 -152 -29 -96 -38 -140 -30 -144 21 -13 106 -12 123 1 17 13 88 248 88
292 0 14 -4 28 -10 31 -15 9 -12 25 5 25 8 0 21 10 29 23 23 37 87 265 84 299
-5 50 -31 58 -199 58 l-146 0 -41 -142z m218 22 c13 -8 12 -18 -4 -82 -25 -99
-38 -118 -81 -118 -20 0 -35 5 -35 12 0 17 41 160 51 181 10 18 45 22 69 7z"/>
<path d="M2175 1081 c-47 -20 -53 -34 -189 -503 -49 -168 -50 -199 -6 -213 34
-11 252 -8 282 4 41 16 43 22 159 416 77 265 76 258 50 284 -19 19 -32 21
-148 20 -71 0 -137 -4 -148 -8z m143 -110 c11 -7 1 -53 -52 -232 -84 -284 -78
-269 -120 -269 -19 0 -37 4 -40 8 -8 13 135 476 152 490 18 14 41 15 60 3z"/>
<path d="M526 993 c-2 -10 -18 -63 -35 -119 -17 -56 -31 -106 -31 -113 0 -16
115 -15 127 2 11 14 34 92 31 104 -1 4 4 18 11 31 7 13 13 42 14 65 l2 42 -57
3 c-47 2 -57 0 -62 -15z m74 -32 c0 -24 -21 -61 -35 -61 -18 0 -18 -1 -4 39
10 28 39 44 39 22z m-37 -138 c-5 -15 -17 -29 -27 -31 -14 -3 -16 1 -10 25 9
38 25 56 37 44 6 -6 6 -20 0 -38z"/>
<path d="M687 1003 c-2 -5 -19 -57 -36 -116 -18 -60 -35 -115 -38 -123 -4 -11
6 -14 45 -14 36 0 52 4 56 16 9 23 8 24 -14 24 -39 0 -16 65 25 72 29 5 33 38
5 38 -18 0 -21 4 -16 23 3 12 6 25 6 29 0 4 12 8 28 10 19 2 28 9 30 26 3 20
-1 22 -42 22 -25 0 -47 -3 -49 -7z"/>
<path d="M287 693 c-13 -12 -7 -43 8 -43 17 0 19 -9 6 -42 -5 -13 -18 -56 -29
-96 l-21 -73 26 3 c21 2 28 11 39 48 45 160 45 159 67 162 14 2 23 11 25 26 3
21 0 22 -56 22 -32 0 -62 -3 -65 -7z"/>
<path d="M430 687 c0 -2 -16 -57 -35 -123 -19 -65 -35 -120 -35 -121 0 -2 11
-3 25 -3 21 0 27 7 40 55 15 52 27 66 39 47 3 -5 -1 -30 -9 -56 l-14 -47 26 3
c23 3 28 12 59 113 18 61 34 116 34 123 0 6 -10 12 -23 12 -19 0 -25 -8 -36
-50 -8 -32 -18 -50 -28 -50 -12 0 -14 7 -9 36 4 19 10 42 13 50 4 10 -2 14
-21 14 -14 0 -26 -2 -26 -3z"/>
<path d="M585 678 c-16 -47 -65 -223 -65 -234 0 -21 86 -19 94 2 10 26 7 34
-14 34 -23 0 -24 8 -10 44 7 19 17 26 35 26 18 0 25 5 25 20 0 13 -7 20 -20
20 -23 0 -23 0 -10 34 6 16 17 26 29 26 11 0 25 9 31 20 10 19 8 20 -40 20
-32 0 -52 -5 -55 -12z"/>
</g>
</svg>
